<svg xmlns="http://www.w3.org/2000/svg" viewBox="0 0 1600 760" role="img" aria-label="Abstract LLM background">
  <defs>
    <linearGradient id="bg" x1="0" x2="1" y1="0" y2="1">
      <stop offset="0" stop-color="#062b2a"/>
      <stop offset=".52" stop-color="#141820"/>
      <stop offset="1" stop-color="#0d1117"/>
    </linearGradient>
    <radialGradient id="core" cx=".7" cy=".45" r=".52">
      <stop offset="0" stop-color="#5eead4" stop-opacity=".55"/>
      <stop offset=".46" stop-color="#1d6b69" stop-opacity=".24"/>
      <stop offset="1" stop-color="#000" stop-opacity="0"/>
    </radialGradient>
    <filter id="soft">
      <feGaussianBlur stdDeviation="18"/>
    </filter>
  </defs>
  <rect width="1600" height="760" fill="url(#bg)"/>
  <rect width="1600" height="760" fill="url(#core)"/>
  <g fill="none" stroke="#83fff1" stroke-opacity=".2">
    <path d="M210 570C430 350 610 300 780 380s336 73 610-210"/>
    <path d="M70 420c240-90 424-82 552 25s314 118 560 16 350-93 450-12"/>
    <path d="M980 80c-58 156-60 304-6 443s54 236-1 292"/>
  </g>
  <g fill="#5eead4" opacity=".22">
    <circle cx="1040" cy="300" r="84" filter="url(#soft)"/>
    <circle cx="1240" cy="438" r="56" filter="url(#soft)"/>
  </g>
  <g stroke="#d6fffb" stroke-opacity=".16">
    <path d="M220 210h190m-95-95v190M1280 210h120m-60-60v120M820 590h180m-90-90v180"/>
  </g>
</svg>
